<svg xmlns="http://www.w3.org/2000/svg" width="1080" height="1920" viewBox="0 0 1080 1920">
<defs><marker id="arr" markerWidth="12" markerHeight="12" refX="9" refY="4" orient="auto" markerUnits="strokeWidth"><path d="M0,0 L0,8 L10,4 z" fill="context-stroke"/></marker></defs>
<rect width="1080" height="1920" fill="#0b1020"/>
<g font-family="NanumSquare, Noto Sans CJK KR, sans-serif"><text x="54" y="82" font-size="50" font-weight="900" fill="#f5f7ff" text-anchor="start">밤길 원정대 · 6계열 승급 시트 A</text><text x="56" y="128" font-size="27" font-weight="600" fill="#aeb9d4" text-anchor="start">지뢰 공병 · 탱크(탄코 보존) · 비행기  |  1080×1920 모바일 세로형</text><rect x="54" y="151" width="972" height="6" rx="3" fill="#f4c95d"/><rect x="46" y="190" width="988" height="490" rx="34" fill="#141c30" stroke="#f4c95d" stroke-width="4"/><g transform="translate(72,240)"><circle cx="55.0" cy="55.0" r="35.2" fill="none" stroke="#f4c95d" stroke-width="10"/><circle cx="55.0" cy="55.0" r="8.8" fill="#ff6b78"/><path d="M55.0 8.8v17.6 M55.0 83.6v17.6 M8.8 55.0h17.6 M83.6 55.0h17.6" stroke="#f4c95d" stroke-width="10" stroke-linecap="round"/></g><text x="205" y="268" font-size="44" font-weight="800" fill="#f4c95d" text-anchor="start">지뢰 공병</text><text x="205" y="312" font-size="26" font-weight="600" fill="#aeb9d4" text-anchor="start">1성 기본 → 2성 A/B 공격 형태 변화</text><rect x="70" y="350" width="300" height="190" rx="24" fill="#1b2742" stroke="#f5f7ff" stroke-width="3"/><text x="220" y="392" font-size="30" font-weight="800" fill="#f4c95d" text-anchor="middle">★ 1성</text><text x="220" y="432" font-size="24" font-weight="600" fill="#f5f7ff" text-anchor="middle"><tspan x="220" dy="0">코앞 길목에 압력 지뢰</tspan><tspan x="220" dy="33">R0 1.20 · 2.60초 · 활성 2</tspan></text><rect x="480" y="335" width="500" height="98" rx="22" fill="#1b2742" stroke="#62d8ff" stroke-width="4"/><text x="510" y="375" font-size="28" font-weight="800" fill="#62d8ff" text-anchor="start">★★ A</text><text x="625" y="370" font-size="23" font-weight="600" fill="#f5f7ff" text-anchor="start"><tspan x="625" dy="0">연쇄 공병</tspan><tspan x="625" dy="31">길을 따라 순차 폭발</tspan></text><rect x="480" y="450" width="500" height="98" rx="22" fill="#1b2742" stroke="#ff6b78" stroke-width="4"/><text x="510" y="490" font-size="28" font-weight="800" fill="#ff6b78" text-anchor="start">★★ B</text><text x="625" y="485" font-size="23" font-weight="600" fill="#f5f7ff" text-anchor="start"><tspan x="625" dy="0">자석 사냥꾼</tspan><tspan x="625" dy="31">정예·보스 부착 폭발</tspan></text><path d="M380 442L451.8 393.0" stroke="#62d8ff" stroke-width="7" stroke-linecap="round"/><polygon points="465.0,384.0 454.1,403.5 442.8,387.0" fill="#62d8ff"/><path d="M380 448L451.2 489.9" stroke="#ff6b78" stroke-width="7" stroke-linecap="round"/><polygon points="465.0,498.0 442.7,496.5 452.8,479.2" fill="#ff6b78"/><rect x="70" y="570" width="910" height="76" rx="18" fill="#0f172a"/><text x="92" y="602" font-size="22" font-weight="800" fill="#73e6a7" text-anchor="start">유리 배치</text><text x="215" y="602" font-size="22" font-weight="600" fill="#f5f7ff" text-anchor="start">외곽 모서리 / 코너 진입 전</text><text x="92" y="632" font-size="22" font-weight="800" fill="#ff6b78" text-anchor="start">약점</text><text x="160" y="632" font-size="22" font-weight="600" fill="#f5f7ff" text-anchor="start">무장 전 통과 · 설치 수 제한</text><rect x="46" y="700" width="988" height="490" rx="34" fill="#141c30" stroke="#73e6a7" stroke-width="4"/><g transform="translate(72,750)"><rect x="8" y="62" width="94" height="34" rx="12" fill="none" stroke="#73e6a7" stroke-width="9"/><rect x="28" y="35" width="54" height="34" rx="10" fill="none" stroke="#73e6a7" stroke-width="9"/><path d="M70 42h45" stroke="#f4c95d" stroke-width="10" stroke-linecap="round"/><circle cx="28" cy="96" r="9" fill="#1b2742" stroke="#f5f7ff" stroke-width="5"/><circle cx="82" cy="96" r="9" fill="#1b2742" stroke="#f5f7ff" stroke-width="5"/></g><text x="205" y="778" font-size="44" font-weight="800" fill="#73e6a7" text-anchor="start">탱크 · 탄코</text><text x="205" y="822" font-size="26" font-weight="600" fill="#aeb9d4" text-anchor="start">1성 기본 → 2성 A/B 공격 형태 변화</text><rect x="70" y="860" width="300" height="190" rx="24" fill="#1b2742" stroke="#f5f7ff" stroke-width="3"/><text x="220" y="902" font-size="30" font-weight="800" fill="#f4c95d" text-anchor="middle">★ 1성</text><text x="220" y="942" font-size="24" font-weight="600" fill="#f5f7ff" text-anchor="middle"><tspan x="220" dy="0">느린 소형 포탄</tspan><tspan x="220" dy="33">R0 1.25 · 2.40초 · 소폭발</tspan></text><rect x="480" y="845" width="500" height="98" rx="22" fill="#1b2742" stroke="#62d8ff" stroke-width="4"/><text x="510" y="885" font-size="28" font-weight="800" fill="#62d8ff" text-anchor="start">★★ A</text><text x="625" y="880" font-size="23" font-weight="600" fill="#f5f7ff" text-anchor="start"><tspan x="625" dy="0">폭발</tspan><tspan x="625" dy="31">큰 반경의 공성 포격</tspan></text><rect x="480" y="960" width="500" height="98" rx="22" fill="#1b2742" stroke="#ff6b78" stroke-width="4"/><text x="510" y="1000" font-size="28" font-weight="800" fill="#ff6b78" text-anchor="start">★★ B</text><text x="625" y="995" font-size="23" font-weight="600" fill="#f5f7ff" text-anchor="start"><tspan x="625" dy="0">소이</tspan><tspan x="625" dy="31">착탄 뒤 화염 지대</tspan></text><path d="M380 952L451.8 903.0" stroke="#62d8ff" stroke-width="7" stroke-linecap="round"/><polygon points="465.0,894.0 454.1,913.5 442.8,897.0" fill="#62d8ff"/><path d="M380 958L451.2 999.9" stroke="#ff6b78" stroke-width="7" stroke-linecap="round"/><polygon points="465.0,1008.0 442.7,1006.5 452.8,989.2" fill="#ff6b78"/><rect x="70" y="1080" width="910" height="76" rx="18" fill="#0f172a"/><text x="92" y="1112" font-size="22" font-weight="800" fill="#73e6a7" text-anchor="start">유리 배치</text><text x="215" y="1112" font-size="22" font-weight="600" fill="#f5f7ff" text-anchor="start">코너 체류 / 긴 변 분담</text><text x="92" y="1142" font-size="22" font-weight="800" fill="#ff6b78" text-anchor="start">약점</text><text x="160" y="1142" font-size="22" font-weight="600" fill="#f5f7ff" text-anchor="start">빠른 산개 적 · 과잉 포격</text><rect x="46" y="1210" width="988" height="490" rx="34" fill="#141c30" stroke="#62d8ff" stroke-width="4"/><g transform="translate(72,1260)"><path d="M55 5l16 39 37 12-5 15-35-3-13 36-13-36-35 3-5-15 37-12z" fill="none" stroke="#62d8ff" stroke-width="8" stroke-linejoin="round"/><path d="M55 8v92" stroke="#f4c95d" stroke-width="6"/></g><text x="205" y="1288" font-size="44" font-weight="800" fill="#62d8ff" text-anchor="start">비행기</text><text x="205" y="1332" font-size="26" font-weight="600" fill="#aeb9d4" text-anchor="start">1성 기본 → 2성 A/B 공격 형태 변화</text><rect x="70" y="1370" width="300" height="190" rx="24" fill="#1b2742" stroke="#f5f7ff" stroke-width="3"/><text x="220" y="1412" font-size="30" font-weight="800" fill="#f4c95d" text-anchor="middle">★ 1성</text><text x="220" y="1452" font-size="24" font-weight="600" fill="#f5f7ff" text-anchor="middle"><tspan x="220" dy="0">엧은 기총 초계 1회</tspan><tspan x="220" dy="33">R0 1.25 · 출격 2.80초</tspan></text><rect x="480" y="1355" width="500" height="98" rx="22" fill="#1b2742" stroke="#62d8ff" stroke-width="4"/><text x="510" y="1395" font-size="28" font-weight="800" fill="#62d8ff" text-anchor="start">★★ A</text><text x="625" y="1390" font-size="23" font-weight="600" fill="#f5f7ff" text-anchor="start"><tspan x="625" dy="0">소이 폭격기</tspan><tspan x="625" dy="31">경로를 따라 화염 띠</tspan></text><rect x="480" y="1470" width="500" height="98" rx="22" fill="#1b2742" stroke="#ff6b78" stroke-width="4"/><text x="510" y="1510" font-size="28" font-weight="800" fill="#ff6b78" text-anchor="start">★★ B</text><text x="625" y="1505" font-size="23" font-weight="600" fill="#f5f7ff" text-anchor="start"><tspan x="625" dy="0">급강하 요격기</tspan><tspan x="625" dy="31">경고 후 정밀 타격</tspan></text><path d="M380 1462L451.8 1413.0" stroke="#62d8ff" stroke-width="7" stroke-linecap="round"/><polygon points="465.0,1404.0 454.1,1423.5 442.8,1407.0" fill="#62d8ff"/><path d="M380 1468L451.2 1509.9" stroke="#ff6b78" stroke-width="7" stroke-linecap="round"/><polygon points="465.0,1518.0 442.7,1516.5 452.8,1499.2" fill="#ff6b78"/><rect x="70" y="1590" width="910" height="76" rx="18" fill="#0f172a"/><text x="92" y="1622" font-size="22" font-weight="800" fill="#73e6a7" text-anchor="start">유리 배치</text><text x="215" y="1622" font-size="22" font-weight="600" fill="#f5f7ff" text-anchor="start">모서리의 두 변 후보</text><text x="92" y="1652" font-size="22" font-weight="800" fill="#ff6b78" text-anchor="start">약점</text><text x="160" y="1652" font-size="22" font-weight="600" fill="#f5f7ff" text-anchor="start">출격 공백 · 표적 이탈</text><text x="540" y="1872" font-size="24" font-weight="700" fill="#aeb9d4" text-anchor="middle">모든 수치는 가설 · 3성은 잠금 · 코드/배포 변경 없음</text></g></svg>